<?xml version="1.0" encoding="utf-8"?>
<!-- Generator: Adobe Illustrator 25.2.1, SVG Export Plug-In . SVG Version: 6.00 Build 0)  -->
<svg version="1.1" xmlns="http://www.w3.org/2000/svg" xmlns:xlink="http://www.w3.org/1999/xlink" x="0px" y="0px"
	 viewBox="0 0 173 40" style="enable-background:new 0 0 173 40;" xml:space="preserve">
<style type="text/css">
	.st0{display:none;fill:#FFFFFF;}
	.st1{fill:#FB923C;}
	.st2{clip-path:url(#SVGID_2_);}
	.st3{fill:none;stroke:#FFFFFF;stroke-width:2;stroke-linecap:round;stroke-linejoin:round;}
	.st4{fill:#FFFFFF;}
</style>
<g id="Camada_1">
	<path class="st0" d="M56.8,21.3c0-1.3,0.3-2.5,0.8-3.6c0.5-1,1.3-1.8,2.2-2.4c0.9-0.6,2-0.8,3.1-0.8c0.9,0,1.7,0.2,2.5,0.6
		c0.8,0.4,1.4,0.9,1.9,1.5v-6.3h3.4V28h-3.4v-2c-0.4,0.7-1,1.2-1.8,1.6c-0.8,0.4-1.6,0.6-2.6,0.6c-1.1,0-2.1-0.3-3.1-0.9
		s-1.7-1.4-2.2-2.4C57.1,23.9,56.8,22.7,56.8,21.3z M67.3,21.4c0-0.8-0.2-1.5-0.5-2.1c-0.3-0.6-0.8-1-1.3-1.3
		c-0.5-0.3-1.1-0.5-1.8-0.5c-0.6,0-1.2,0.2-1.7,0.5s-1,0.8-1.3,1.3c-0.3,0.6-0.5,1.3-0.5,2.1c0,0.8,0.2,1.5,0.5,2.1
		c0.3,0.6,0.8,1,1.3,1.4c0.5,0.3,1.1,0.5,1.7,0.5c0.6,0,1.2-0.2,1.8-0.5c0.5-0.3,1-0.8,1.3-1.3C67.1,22.9,67.3,22.2,67.3,21.4z"/>
	<path class="st0" d="M77.8,17.5v6.4c0,0.4,0.1,0.8,0.3,1c0.2,0.2,0.6,0.3,1.1,0.3h1.6V28h-2.1c-2.8,0-4.2-1.4-4.2-4.1v-6.4h-1.6
		v-2.8h1.6v-3.3h3.4v3.3h3v2.8H77.8z"/>
	<path class="st0" d="M105.5,14.5c1.6,0,2.9,0.5,3.9,1.5c1,1,1.5,2.4,1.5,4.2V28h-3.4v-7.3c0-1-0.3-1.8-0.8-2.4
		c-0.5-0.6-1.2-0.8-2.2-0.8c-0.9,0-1.6,0.3-2.2,0.8c-0.5,0.5-0.8,1.3-0.8,2.4V28h-3.4v-7.3c0-1-0.3-1.8-0.8-2.4
		c-0.5-0.6-1.2-0.8-2.2-0.8c-0.9,0-1.7,0.3-2.2,0.8c-0.5,0.5-0.8,1.3-0.8,2.4V28h-3.4V14.7h3.4v1.6c0.4-0.6,1-1,1.7-1.3
		c0.7-0.3,1.4-0.5,2.3-0.5c1,0,2,0.2,2.8,0.7c0.8,0.4,1.4,1.1,1.9,1.9c0.4-0.8,1.1-1.4,1.9-1.8C103.6,14.7,104.5,14.5,105.5,14.5z"
		/>
	<path class="st0" d="M120,28.2c-1.3,0-2.4-0.3-3.5-0.8c-1-0.6-1.8-1.4-2.4-2.4c-0.6-1-0.9-2.2-0.9-3.6c0-1.4,0.3-2.6,0.9-3.6
		c0.6-1,1.4-1.8,2.5-2.4c1-0.6,2.2-0.9,3.5-0.9s2.4,0.3,3.5,0.9c1,0.6,1.9,1.4,2.4,2.4c0.6,1,0.9,2.2,0.9,3.6c0,1.4-0.3,2.6-0.9,3.6
		c-0.6,1-1.4,1.8-2.5,2.4C122.5,27.9,121.3,28.2,120,28.2z M120,25.3c0.6,0,1.2-0.1,1.7-0.4c0.5-0.3,1-0.8,1.3-1.3
		c0.3-0.6,0.5-1.3,0.5-2.2c0-1.3-0.3-2.2-1-2.9c-0.7-0.7-1.5-1-2.4-1s-1.8,0.3-2.4,1c-0.6,0.7-1,1.6-1,2.9s0.3,2.2,0.9,2.9
		C118.2,25,119,25.3,120,25.3z"/>
	<path class="st0" d="M136.8,14.5c1.6,0,2.9,0.5,3.8,1.5c1,1,1.5,2.4,1.5,4.2V28h-3.4v-7.3c0-1.1-0.3-1.9-0.8-2.4
		c-0.5-0.6-1.2-0.9-2.2-0.9c-0.9,0-1.7,0.3-2.2,0.9c-0.5,0.6-0.8,1.4-0.8,2.4V28h-3.4V14.7h3.4v1.7c0.4-0.6,1-1,1.7-1.3
		C135.2,14.7,135.9,14.5,136.8,14.5z"/>
	<path class="st0" d="M157.6,21.1c0,0.5,0,0.9-0.1,1.3h-9.7c0.1,1,0.4,1.7,1,2.3c0.6,0.5,1.3,0.8,2.2,0.8c1.2,0,2.1-0.5,2.7-1.6h3.6
		c-0.4,1.3-1.1,2.3-2.2,3.2c-1.1,0.8-2.4,1.2-4,1.2c-1.3,0-2.4-0.3-3.5-0.8c-1-0.6-1.8-1.4-2.4-2.4c-0.6-1-0.8-2.2-0.8-3.6
		c0-1.4,0.3-2.6,0.8-3.6c0.6-1,1.3-1.8,2.4-2.4c1-0.6,2.2-0.8,3.5-0.8c1.3,0,2.4,0.3,3.4,0.8c1,0.5,1.8,1.3,2.3,2.3
		C157.3,18.6,157.6,19.8,157.6,21.1z M154.1,20.1c0-0.9-0.3-1.6-0.9-2.1c-0.6-0.5-1.4-0.8-2.2-0.8c-0.8,0-1.5,0.3-2.1,0.8
		c-0.6,0.5-0.9,1.2-1,2.1H154.1z"/>
	<path class="st0" d="M172.8,14.7l-8.2,19.6H161l2.9-6.6l-5.3-13h3.8l3.4,9.3l3.5-9.3H172.8z"/>
	<path class="st1" d="M34.1,5.9C30.4,2.1,25.3,0,20,0S9.6,2.1,5.9,5.9S0,14.7,0,20s2.1,10.4,5.9,14.1S14.7,40,20,40
		s10.4-2.1,14.1-5.9S40,25.3,40,20S37.9,9.6,34.1,5.9z"/>
	<g>
		<defs>
			<rect id="SVGID_1_" x="6.9" y="6.9" width="27.4" height="27.4"/>
		</defs>
		<clipPath id="SVGID_2_">
			<use xlink:href="#SVGID_1_"  style="overflow:visible;"/>
		</clipPath>
		<g class="st2">
			<path class="st3" d="M20.6,8v25.1"/>
			<path class="st3" d="M26.3,12.6h-8.6c-1.1,0-2.1,0.4-2.8,1.2c-0.8,0.8-1.2,1.8-1.2,2.8c0,1.1,0.4,2.1,1.2,2.8
				c0.8,0.8,1.8,1.2,2.8,1.2h5.7c1.1,0,2.1,0.4,2.8,1.2c0.8,0.8,1.2,1.8,1.2,2.8c0,1.1-0.4,2.1-1.2,2.8c-0.8,0.8-1.8,1.2-2.8,1.2
				h-9.7"/>
		</g>
	</g>
</g>
<g id="Camada_2">
	<g>
		<path class="st4" d="M71.8,15.6c0.6,0.3,1,0.8,1.4,1.4s0.5,1.3,0.5,2c0,0.3,0,0.7-0.1,1.1l-1.4,7.1h-4.9l1.3-6.4
			c0-0.2,0-0.4,0-0.5c0-0.4-0.1-0.7-0.3-0.9c-0.2-0.2-0.5-0.3-0.8-0.3c-0.4,0-0.8,0.2-1.2,0.5c-0.4,0.4-0.6,0.8-0.8,1.4l-1.2,6.2h-5
			l1.3-6.4c0-0.2,0-0.4,0-0.5c0-0.4-0.1-0.7-0.3-0.9c-0.2-0.2-0.5-0.3-0.8-0.3c-0.5,0-0.9,0.2-1.3,0.6c-0.4,0.4-0.7,0.9-0.8,1.6
			l-1.2,5.9h-5l2.4-12h5l-0.3,1.5c1-1.1,2.2-1.7,3.5-1.7c0.9,0,1.7,0.2,2.3,0.7c0.7,0.5,1.1,1.1,1.4,1.9c1.3-1.7,2.7-2.6,4.3-2.6
			C70.5,15.1,71.2,15.2,71.8,15.6z"/>
		<path class="st4" d="M89.3,15.3l-7.5,13c-0.7,1.2-1.5,2.1-2.5,2.7c-0.9,0.5-2,0.8-3.3,0.8c-0.8,0-1.6-0.1-2.2-0.4
			c-0.6-0.2-1.3-0.6-1.9-1.1l2.5-3c0.2,0.2,0.4,0.4,0.6,0.5c0.2,0.1,0.4,0.1,0.7,0.1c0.5,0,1.1-0.2,1.5-0.6l0.3-0.3L75,15.3h5l1,6.9
			l3.4-6.9H89.3z"/>
		<path class="st4" d="M115.2,15.3l-6.8,12h-4.8l-0.4-6.3l-3.1,6.3h-4.8l-2-12h4.9l0.5,7.2l3.3-7.2h4.6l0.5,7.2l3.3-7.2H115.2z"/>
		<path class="st4" d="M115.9,26.8c-0.7-0.4-1.2-1.1-1.6-1.8c-0.4-0.8-0.6-1.7-0.6-2.7c0-1.3,0.3-2.5,0.8-3.6c0.5-1.1,1.3-2,2.2-2.6
			c0.9-0.6,2-1,3.1-1c0.8,0,1.4,0.2,2,0.5c0.6,0.3,1,0.7,1.4,1.3l0.3-1.6h5l-2.4,12h-5l0.2-1.2c-1,0.9-2.1,1.4-3.3,1.4
			C117.4,27.5,116.6,27.2,115.9,26.8z M121.4,23.4c0.3-0.3,0.6-0.6,0.8-1s0.3-0.9,0.3-1.4c0-0.6-0.1-1-0.4-1.3
			c-0.3-0.3-0.7-0.5-1.1-0.5c-0.6,0-1.1,0.3-1.5,0.8c-0.4,0.5-0.6,1.2-0.6,2c0,0.6,0.1,1,0.4,1.4c0.3,0.3,0.6,0.5,1.1,0.5
			C120.6,23.8,121,23.6,121.4,23.4z"/>
		<path class="st4" d="M137,11l-3.3,16.3h-5L132,11H137z"/>
		<path class="st4" d="M144.6,11l-3.3,16.3h-5l3.3-16.3H144.6z"/>
		<path class="st4" d="M154.3,15.8c0.9,0.5,1.7,1.1,2.2,2s0.8,1.8,0.8,2.9c0,0.5-0.1,1.1-0.2,1.7h-8c0.2,1,0.8,1.5,1.9,1.5
			c0.8,0,1.6-0.3,2.4-0.9l2.6,2.5c-1.4,1.3-3.1,2-5.1,2c-1.3,0-2.5-0.2-3.5-0.7c-1-0.4-1.8-1.1-2.3-1.9s-0.8-1.8-0.8-2.9
			c0-1.3,0.3-2.5,0.9-3.6c0.6-1.1,1.4-1.9,2.4-2.5c1-0.6,2.2-0.9,3.5-0.9C152.3,15.1,153.4,15.3,154.3,15.8z M152.5,19.6
			c0-0.3-0.1-0.6-0.3-0.8c-0.2-0.2-0.5-0.3-0.9-0.3c-0.4,0-0.7,0.2-1.1,0.5s-0.6,0.7-0.8,1.2h3C152.5,19.9,152.5,19.7,152.5,19.6z"
			/>
		<path class="st4" d="M164,22.9c0,0.2,0,0.3,0,0.3c0,0.4,0.2,0.5,0.6,0.5c0.3,0,0.8-0.1,1.4-0.4l0.4,3.5c-0.4,0.2-1,0.4-1.6,0.5
			c-0.6,0.1-1.3,0.2-1.9,0.2c-1.2,0-2.2-0.3-2.9-0.9c-0.7-0.6-1.1-1.4-1.1-2.5c0-0.3,0-0.6,0.1-0.9l0.8-4.2h-1.7l0.6-3.1h1.7
			l0.7-3.4h4.9l-0.7,3.4h2.8l-0.6,3.1h-2.8L164,22.9z"/>
	</g>
</g>
</svg>
